solid
 facet normal 0.010854 -0.999941 0.000000
  outer loop
   vertex 0.3647519946 -4.990542889 0 
   vertex 0.3647519946 -4.990542889 3.386035919 
   vertex -7.985091209 -5.081179142 2.665627956 
  endloop
 endfacet
 facet normal 0.010854 -0.999941 0.000000
  outer loop
   vertex -7.985091209 -5.081179142 2.665627956 
   vertex -7.985091209 -5.081180096 0 
   vertex 0.3647519946 -4.990542889 0 
  endloop
 endfacet
 facet normal -0.248584 0.968610 0.000000
  outer loop
   vertex -2.434695005 2.192449093 1.800634027 
   vertex -2.434695005 2.192449093 0 
   vertex -6.758756161 1.082721949 0 
  endloop
 endfacet
 facet normal -0.248584 0.968610 0.000000
  outer loop
   vertex -6.758756161 1.082721949 0 
   vertex -6.758756161 1.082721949 1.260434031 
   vertex -2.434695005 2.192449093 1.800634027 
  endloop
 endfacet
 facet normal 1.000000 0.000000 0.000000
  outer loop
   vertex 16.62644386 -2.312916994 0 
   vertex 16.62644386 -0.242366001 0 
   vertex 16.62644386 -0.242366001 1.544841051 
  endloop
 endfacet
 facet normal 1.000000 0.000000 0.000000
  outer loop
   vertex 16.62644386 -0.242366001 1.544841051 
   vertex 16.62644386 -2.312916994 1.633190036 
   vertex 16.62644386 -2.312916994 0 
  endloop
 endfacet
 facet normal -1.000000 0.000000 0.000000
  outer loop
   vertex -16.62937546 -4.614542007 0.6434280276 
   vertex -16.62937546 -2.388932943 0.8128250241 
   vertex -16.62937546 -2.388932943 0 
  endloop
 endfacet
 facet normal -1.000000 0.000000 0.000000
  outer loop
   vertex -16.62937546 -2.388932943 0 
   vertex -16.62937546 -4.614542007 0 
   vertex -16.62937546 -4.614542007 0.6434280276 
  endloop
 endfacet
 facet normal 0.245102 -0.969497 0.000000
  outer loop
   vertex 17.57100487 -2.617331982 0 
   vertex 17.57100487 -2.617331982 1.851613998 
   vertex 10.23247147 -4.472611904 3.286669016 
  endloop
 endfacet
 facet normal 0.245102 -0.969497 0.000000
  outer loop
   vertex 10.23247147 -4.472611904 3.286669016 
   vertex 10.23246956 -4.472611904 0 
   vertex 17.57100487 -2.617331982 0 
  endloop
 endfacet
 facet normal 0.052415 -0.998625 -0.000000
  outer loop
   vertex 10.23246956 -4.472611904 0 
   vertex 10.23247147 -4.472611904 3.286669016 
   vertex 0.3647519946 -4.990542889 3.386035919 
  endloop
 endfacet
 facet normal 0.052415 -0.998625 0.000000
  outer loop
   vertex 0.3647519946 -4.990542889 3.386035919 
   vertex 0.3647519946 -4.990542889 0 
   vertex 10.23246956 -4.472611904 0 
  endloop
 endfacet
 facet normal -0.019681 -0.999806 0.000000
  outer loop
   vertex -17.57100487 -4.892487049 0.8310130239 
   vertex -17.57100487 -4.892487049 0 
   vertex -7.985091209 -5.081180096 0 
  endloop
 endfacet
 facet normal -0.019681 -0.999806 0.000000
  outer loop
   vertex -7.985091209 -5.081180096 0 
   vertex -7.985091209 -5.081179142 2.665627956 
   vertex -17.57100487 -4.892487049 0.8310130239 
  endloop
 endfacet
 facet normal 0.062163 0.998066 0.000000
  outer loop
   vertex 8.138238907 2.026956081 1.881474972 
   vertex 8.138238907 2.026956081 0 
   vertex 2.958075047 2.349592924 0 
  endloop
 endfacet
 facet normal 0.062163 0.998066 0.000000
  outer loop
   vertex 2.958075047 2.349592924 0 
   vertex 2.958075047 2.349592924 1.953546047 
   vertex 8.138238907 2.026956081 1.881474972 
  endloop
 endfacet
 facet normal 0.410038 -0.047442 0.910834
  outer loop
   vertex 14.1143198 -2.415396929 16.55226517 
   vertex 14.16251945 -2.054832935 16.54934692 
   vertex 9.73933506 -2.054832935 18.54057121 
  endloop
 endfacet
 facet normal 0.406018 -0.088993 0.909521
  outer loop
   vertex 9.73933506 -2.054832935 18.54057121 
   vertex 9.660446167 -2.443145037 18.53779411 
   vertex 14.1143198 -2.415396929 16.55226517 
  endloop
 endfacet
 facet normal -0.177459 -0.435717 0.882416
  outer loop
   vertex -17.57100487 -4.892487049 0.8310130239 
   vertex -7.985091209 -5.081179142 2.665627956 
   vertex -7.985092163 -1.762945056 4.304096222 
  endloop
 endfacet
 facet normal -0.209138 -0.365831 0.906879
  outer loop
   vertex -7.985092163 -1.762945056 4.304096222 
   vertex -17.57100487 -3.162489891 1.528885961 
   vertex -17.57100487 -4.892487049 0.8310130239 
  endloop
 endfacet
 facet normal 0.048921 -0.823666 0.564961
  outer loop
   vertex 0.3647519946 -4.990542889 3.386035919 
   vertex 10.23247147 -4.472611904 3.286669016 
   vertex 10.11023235 -3.543668985 4.651575089 
  endloop
 endfacet
 facet normal 0.041664 -0.801918 0.595980
  outer loop
   vertex 10.11023235 -3.543668985 4.651575089 
   vertex 0.3532359898 -3.985476017 4.739205837 
   vertex 0.3647519946 -4.990542889 3.386035919 
  endloop
 endfacet
 facet normal 0.304203 -0.777218 0.550811
  outer loop
   vertex 10.23247147 -4.472611904 3.286669016 
   vertex 17.57100487 -2.617331982 1.851613998 
   vertex 12.17534256 -2.613320112 4.837200165 
  endloop
 endfacet
 facet normal 0.299709 -0.775998 0.554979
  outer loop
   vertex 12.17534256 -2.613320112 4.837200165 
   vertex 10.11023235 -3.543668985 4.651575089 
   vertex 10.23247147 -4.472611904 3.286669016 
  endloop
 endfacet
 facet normal 0.398196 0.284038 0.872217
  outer loop
   vertex 17.57100487 -1.856724024 2.390707016 
   vertex 17.57100487 0.06204900146 1.765858054 
   vertex 12.17534256 -1.805117965 4.837200165 
  endloop
 endfacet
 facet normal 0.159059 0.718765 0.676814
  outer loop
   vertex 17.57100487 0.06204900146 1.765858054 
   vertex 10.23246956 0.1410659999 3.406585932 
   vertex 10.62552261 -1.099228978 4.63138485 
  endloop
 endfacet
 facet normal 0.196301 0.646056 0.737616
  outer loop
   vertex 10.62552261 -1.099228978 4.63138485 
   vertex 12.17534256 -1.805117965 4.837200165 
   vertex 17.57100487 0.06204900146 1.765858054 
  endloop
 endfacet
 facet normal -0.405524 0.855225 0.322708
  outer loop
   vertex 0.9266309738 0.1410659999 3.505953074 
   vertex -1.915868998 -1.120062947 3.276170015 
   vertex -1.879593968 -1.791923046 5.102283001 
  endloop
 endfacet
 facet normal -0.567268 0.823533 0.000000
  outer loop
   vertex -1.879593968 -1.791923046 5.102283001 
   vertex 0.9266309738 0.1410659999 5.707249165 
   vertex 0.9266309738 0.1410659999 3.505953074 
  endloop
 endfacet
 facet normal -0.157687 -0.437205 0.885430
  outer loop
   vertex -7.985092163 -1.762945056 4.304096222 
   vertex -7.985091209 -5.081179142 2.665627956 
   vertex -1.879593968 -2.348531008 5.102283001 
  endloop
 endfacet
 facet normal -0.129629 0.000000 0.991563
  outer loop
   vertex -1.879593968 -2.348531008 5.102283001 
   vertex -1.879593968 -1.791923046 5.102283001 
   vertex -7.985092163 -1.762945056 4.304096222 
  endloop
 endfacet
 facet normal -0.063690 -0.581132 0.811313
  outer loop
   vertex -1.879593968 -2.348531008 5.102283001 
   vertex -7.985091209 -5.081179142 2.665627956 
   vertex 0.3647519946 -4.990542889 3.386035919 
  endloop
 endfacet
 facet normal -0.442541 -0.721695 0.532272
  outer loop
   vertex 0.3647519946 -4.990542889 3.386035919 
   vertex 0.3532359898 -3.985476017 4.739205837 
   vertex -1.879593968 -2.348531008 5.102283001 
  endloop
 endfacet
 facet normal 0.045801 -0.995822 0.079001
  outer loop
   vertex 0.3532359898 -3.985476017 4.739205837 
   vertex 10.11023235 -3.543668985 4.651575089 
   vertex 14.1143198 -2.415396929 16.55226517 
  endloop
 endfacet
 facet normal 0.042913 -0.995679 0.082347
  outer loop
   vertex 14.1143198 -2.415396929 16.55226517 
   vertex 9.660446167 -2.443145037 18.53779411 
   vertex 0.3532359898 -3.985476017 4.739205837 
  endloop
 endfacet
 facet normal 0.414139 -0.908658 -0.053193
  outer loop
   vertex 10.11023235 -3.543668985 4.651575089 
   vertex 12.17534256 -2.613320112 4.837200165 
   vertex 14.1143198 -2.415396929 16.55226517 
  endloop
 endfacet
 facet normal 0.985910 0.000000 -0.167277
  outer loop
   vertex 12.17534256 -2.613320112 4.837200165 
   vertex 12.17534256 -1.805117965 4.837200165 
   vertex 14.16251945 -2.054832935 16.54934692 
  endloop
 endfacet
 facet normal 0.978293 -0.132067 -0.159688
  outer loop
   vertex 14.16251945 -2.054832935 16.54934692 
   vertex 14.1143198 -2.415396929 16.55226517 
   vertex 12.17534256 -2.613320112 4.837200165 
  endloop
 endfacet
 facet normal 0.220139 0.975328 -0.016555
  outer loop
   vertex 12.17534256 -1.805117965 4.837200165 
   vertex 10.29824066 -1.30299902 9.458521843 
   vertex 14.16251945 -2.054832935 16.54934692 
  endloop
 endfacet
 facet normal -0.214906 0.976614 0.006384
  outer loop
   vertex -1.879593968 -1.791923046 5.102283001 
   vertex -1.697489023 -1.770339012 7.930579185 
   vertex 0.4557110071 -1.281712055 5.664804935 
  endloop
 endfacet
 facet normal -0.997653 0.039020 0.056259
  outer loop
   vertex -1.879593968 -2.348531008 5.102283001 
   vertex -1.720366955 -2.354104996 7.929773808 
   vertex -1.697489023 -1.770339012 7.930579185 
  endloop
 endfacet
 facet normal -0.997934 0.000000 0.064254
  outer loop
   vertex -1.697489023 -1.770339012 7.930579185 
   vertex -1.879593968 -1.791923046 5.102283001 
   vertex -1.879593968 -2.348531008 5.102283001 
  endloop
 endfacet
 facet normal -0.587625 -0.808520 0.031498
  outer loop
   vertex -1.879593968 -2.348531008 5.102283001 
   vertex 0.3532359898 -3.985476017 4.739205837 
   vertex -1.720366955 -2.354104996 7.929773808 
  endloop
 endfacet
 facet normal -0.167858 0.905638 0.389414
  outer loop
   vertex -7.985092163 -1.762945056 4.304096222 
   vertex -7.985092163 -1.109984994 2.785543919 
   vertex -17.57100487 -2.110989094 0.9814810157 
  endloop
 endfacet
 facet normal -0.308409 0.439258 0.843763
  outer loop
   vertex -17.57100487 -2.110989094 0.9814810157 
   vertex -17.57100487 -3.162489891 1.528885961 
   vertex -7.985092163 -1.762945056 4.304096222 
  endloop
 endfacet
 facet normal 0.411129 -0.527123 0.743716
  outer loop
   vertex 12.17534256 -2.613320112 4.837200165 
   vertex 17.57100487 -2.617331982 1.851613998 
   vertex 17.57100487 -1.856724024 2.390707016 
  endloop
 endfacet
 facet normal 0.412952 0.000000 0.910753
  outer loop
   vertex 17.57100487 -1.856724024 2.390707016 
   vertex 12.17534256 -1.805117965 4.837200165 
   vertex 12.17534256 -2.613320112 4.837200165 
  endloop
 endfacet
 facet normal 0.008254 0.634314 0.773032
  outer loop
   vertex 0.9266309738 0.1410659999 3.505953074 
   vertex 10.23246956 0.1410659999 3.406585932 
   vertex 8.138238907 2.026956081 1.881474972 
  endloop
 endfacet
 facet normal 0.045646 0.546021 0.836527
  outer loop
   vertex 8.138238907 2.026956081 1.881474972 
   vertex 2.958075047 2.349592924 1.953546047 
   vertex 0.9266309738 0.1410659999 3.505953074 
  endloop
 endfacet
 facet normal -0.073328 0.396199 0.915232
  outer loop
   vertex -7.985092163 -1.109984994 2.785543919 
   vertex -1.915868998 -1.120062947 3.276170015 
   vertex -2.434695005 2.192449093 1.800634027 
  endloop
 endfacet
 facet normal -0.255404 0.644257 0.720903
  outer loop
   vertex -2.434695005 2.192449093 1.800634027 
   vertex -6.758756161 1.082721949 1.260434031 
   vertex -7.985092163 -1.109984994 2.785543919 
  endloop
 endfacet
 facet normal -0.040132 0.599043 0.799711
  outer loop
   vertex 0.9266309738 0.1410659999 3.505953074 
   vertex 2.958075047 2.349592924 1.953546047 
   vertex -2.434695005 2.192449093 1.800634027 
  endloop
 endfacet
 facet normal -0.029127 0.999576 0.000000
  outer loop
   vertex -2.434695005 2.192449093 1.800634027 
   vertex 2.958075047 2.349592924 1.953546047 
   vertex 2.958075047 2.349592924 0 
  endloop
 endfacet
 facet normal -0.029127 0.999576 0.000000
  outer loop
   vertex 2.958075047 2.349592924 0 
   vertex -2.434695005 2.192449093 0 
   vertex -2.434695005 2.192449093 1.800634027 
  endloop
 endfacet
 facet normal -0.115205 0.993342 0.000000
  outer loop
   vertex -17.57100487 -2.110989094 0 
   vertex -17.57100487 -2.110989094 0.9814810157 
   vertex -15.27778339 -1.845028043 1.055050015 
  endloop
 endfacet
 facet normal -0.115205 0.993342 0.000000
  outer loop
   vertex -15.27778339 -1.845028043 1.055050015 
   vertex -15.27778625 -1.845028043 0 
   vertex -17.57100487 -2.110989094 0 
  endloop
 endfacet
 facet normal -0.060129 0.973495 -0.220661
  outer loop
   vertex -17.57100487 -2.110989094 0.9814810157 
   vertex -7.985092163 -1.109984994 2.785543919 
   vertex -8.012088776 -1.213253021 2.337310076 
  endloop
 endfacet
 facet normal -0.119169 0.973406 0.195651
  outer loop
   vertex -8.012088776 -1.213253021 2.337310076 
   vertex -15.27778339 -1.845028043 1.055050015 
   vertex -17.57100487 -2.110989094 0.9814810157 
  endloop
 endfacet
 facet normal -0.872775 0.488123 -0.000000
  outer loop
   vertex -7.985092163 -1.109984994 2.785543919 
   vertex -6.758756161 1.082721949 1.260434031 
   vertex -6.971953869 0.7015209794 1.01462698 
  endloop
 endfacet
 facet normal -0.891690 0.449883 -0.049942
  outer loop
   vertex -6.971953869 0.7015209794 1.01462698 
   vertex -8.012088776 -1.213253021 2.337310076 
   vertex -7.985092163 -1.109984994 2.785543919 
  endloop
 endfacet
 facet normal -0.872775 0.488123 0.000000
  outer loop
   vertex -6.758756161 1.082721949 1.260434031 
   vertex -6.758756161 1.082721949 0 
   vertex -6.971953869 0.7015209794 0 
  endloop
 endfacet
 facet normal -0.872774 0.488124 0.000000
  outer loop
   vertex -6.971953869 0.7015209794 0 
   vertex -6.971953869 0.7015209794 1.01462698 
   vertex -6.758756161 1.082721949 1.260434031 
  endloop
 endfacet
 facet normal -0.293130 0.956073 0.000001
  outer loop
   vertex -6.971953869 0.7015209794 0 
   vertex -15.27778625 -1.845028043 0 
   vertex -15.27778339 -1.845028043 1.055050015 
  endloop
 endfacet
 facet normal -0.293130 0.956073 0.000000
  outer loop
   vertex -15.27778339 -1.845028043 1.055050015 
   vertex -6.971953869 0.7015209794 1.01462698 
   vertex -6.971953869 0.7015209794 0 
  endloop
 endfacet
 facet normal -0.188036 0.625321 0.757374
  outer loop
   vertex -8.012088776 -1.213253021 2.337310076 
   vertex -6.971953869 0.7015209794 1.01462698 
   vertex -15.27778339 -1.845028043 1.055050015 
  endloop
 endfacet
 facet normal 0.687186 0.724947 -0.047181
  outer loop
   vertex 8.138238907 2.026956081 1.881474972 
   vertex 10.23246956 0.1410659999 3.406585932 
   vertex 10.2757597 0.07050599903 2.952924013 
  endloop
 endfacet
 facet normal 0.672857 0.739725 0.008384
  outer loop
   vertex 10.2757597 0.07050599903 2.952924013 
   vertex 8.462802887 1.734680057 1.621214032 
   vertex 8.138238907 2.026956081 1.881474972 
  endloop
 endfacet
 facet normal 0.027390 0.996845 0.074500
  outer loop
   vertex 10.23246956 0.1410659999 3.406585932 
   vertex 17.57100487 0.06204900146 1.765858054 
   vertex 14.59104347 0.136243999 1.868679047 
  endloop
 endfacet
 facet normal -0.054858 0.985824 -0.158564
  outer loop
   vertex 14.59104347 0.136243999 1.868679047 
   vertex 10.2757597 0.07050599903 2.952924013 
   vertex 10.23246956 0.1410659999 3.406585932 
  endloop
 endfacet
 facet normal 0.024890 0.999690 0.000000
  outer loop
   vertex 17.57100487 0.06204900146 1.765858054 
   vertex 17.57100487 0.06204900146 0 
   vertex 14.59104156 0.136243999 0 
  endloop
 endfacet
 facet normal 0.024890 0.999690 -0.000000
  outer loop
   vertex 14.59104156 0.136243999 0 
   vertex 14.59104347 0.136243999 1.868679047 
   vertex 17.57100487 0.06204900146 1.765858054 
  endloop
 endfacet
 facet normal 0.252387 0.967626 0.000000
  outer loop
   vertex 14.59104156 0.136243999 0 
   vertex 8.462802887 1.734680057 0 
   vertex 8.462802887 1.734680057 1.621214032 
  endloop
 endfacet
 facet normal 0.252387 0.967626 -0.000000
  outer loop
   vertex 8.462802887 1.734680057 1.621214032 
   vertex 14.59104347 0.136243999 1.868679047 
   vertex 14.59104156 0.136243999 0 
  endloop
 endfacet
 facet normal 0.159592 0.716923 0.678640
  outer loop
   vertex 10.2757597 0.07050599903 2.952924013 
   vertex 14.59104347 0.136243999 1.868679047 
   vertex 8.462802887 1.734680057 1.621214032 
  endloop
 endfacet
 facet normal 0.038163 0.995669 0.084772
  outer loop
   vertex 9.73933506 -2.054832935 18.54057121 
   vertex 14.16251945 -2.054832935 16.54934692 
   vertex 10.29824066 -1.30299902 9.458521843 
  endloop
 endfacet
 facet normal 0.028305 0.996047 0.084197
  outer loop
   vertex 10.29824066 -1.30299902 9.458521843 
   vertex 5.599730015 -1.30299902 11.03804874 
   vertex 9.73933506 -2.054832935 18.54057121 
  endloop
 endfacet
 facet normal 0.000000 1.000000 0.000000
  outer loop
   vertex 10.85905457 5.081180096 4.438062191 
   vertex 7.019254208 5.081180096 4.455517769 
   vertex 7.019254208 5.081180096 4.67577219 
  endloop
 endfacet
 facet normal 0.000000 1.000000 0.000000
  outer loop
   vertex 7.019254208 5.081180096 4.67577219 
   vertex 10.85905457 5.081180096 4.658317089 
   vertex 10.85905457 5.081180096 4.438062191 
  endloop
 endfacet
 facet normal 0.001618 0.988451 0.151533
  outer loop
   vertex 10.23246956 0.1410659999 5.607882023 
   vertex 0.9266309738 0.1410659999 5.707249165 
   vertex 5.5761199 -0.5931299925 10.44676208 
  endloop
 endfacet
 facet normal 0.065269 0.975349 0.210795
  outer loop
   vertex 5.5761199 -0.5931299925 10.44676208 
   vertex 10.14286423 -0.5931299925 9.032747269 
   vertex 10.23246956 0.1410659999 5.607882023 
  endloop
 endfacet
 facet normal -0.631178 0.483916 0.606168
  outer loop
   vertex 0.4557110071 -1.281712055 5.664804935 
   vertex 5.599730015 -1.30299902 11.03804874 
   vertex 5.5761199 -0.5931299925 10.44676208 
  endloop
 endfacet
 facet normal -0.682627 0.205015 0.701420
  outer loop
   vertex 5.5761199 -0.5931299925 10.44676208 
   vertex 0.9266309738 0.1410659999 5.707249165 
   vertex 0.4557110071 -1.281712055 5.664804935 
  endloop
 endfacet
 facet normal 0.953277 0.302097 0.000000
  outer loop
   vertex 10.23246956 0.1410659999 3.406585932 
   vertex 10.23246956 0.1410659999 5.607882023 
   vertex 10.62552261 -1.099228978 4.63138485 
  endloop
 endfacet
 facet normal 0.966397 0.244997 0.077805
  outer loop
   vertex 10.62552261 -1.099228978 4.63138485 
   vertex 10.23246956 0.1410659999 5.607882023 
   vertex 10.14286423 -0.5931299925 9.032747269 
  endloop
 endfacet
 facet normal 0.963519 0.256575 0.076158
  outer loop
   vertex 10.14286423 -0.5931299925 9.032747269 
   vertex 10.29824066 -1.30299902 9.458521843 
   vertex 10.62552261 -1.099228978 4.63138485 
  endloop
 endfacet
 facet normal 0.000000 1.000000 0.000000
  outer loop
   vertex 10.23246956 0.1410659999 3.406585932 
   vertex 0.9266309738 0.1410659999 3.505953074 
   vertex 1.359320998 0.1410659999 4.043169022 
  endloop
 endfacet
 facet normal 0.000000 1.000000 0.000000
  outer loop
   vertex 1.359320998 0.1410659999 4.043169022 
   vertex 9.237901688 0.1410659999 3.954730034 
   vertex 10.23246956 0.1410659999 3.406585932 
  endloop
 endfacet
 facet normal 0.000000 1.000000 0.000000
  outer loop
   vertex 0.9266309738 0.1410659999 3.505953074 
   vertex 0.9266309738 0.1410659999 5.707249165 
   vertex 1.359320998 0.1410659999 5.159104824 
  endloop
 endfacet
 facet normal 0.000000 1.000000 0.000000
  outer loop
   vertex 1.359320998 0.1410659999 5.159104824 
   vertex 1.359320998 0.1410659999 4.043169022 
   vertex 0.9266309738 0.1410659999 3.505953074 
  endloop
 endfacet
 facet normal 0.000000 1.000000 -0.000000
  outer loop
   vertex 0.9266309738 0.1410659999 5.707249165 
   vertex 10.23246956 0.1410659999 5.607882023 
   vertex 9.237901688 0.1410659999 5.070665836 
  endloop
 endfacet
 facet normal 0.000000 1.000000 0.000000
  outer loop
   vertex 9.237901688 0.1410659999 5.070665836 
   vertex 1.359320998 0.1410659999 5.159104824 
   vertex 0.9266309738 0.1410659999 5.707249165 
  endloop
 endfacet
 facet normal 0.000000 1.000000 0.000000
  outer loop
   vertex 10.23246956 0.1410659999 5.607882023 
   vertex 10.23246956 0.1410659999 3.406585932 
   vertex 9.237901688 0.1410659999 3.954730034 
  endloop
 endfacet
 facet normal 0.000000 1.000000 0.000000
  outer loop
   vertex 9.237901688 0.1410659999 3.954730034 
   vertex 9.237901688 0.1410659999 5.070665836 
   vertex 10.23246956 0.1410659999 5.607882023 
  endloop
 endfacet
 facet normal -0.011173 0.095880 -0.995330
  outer loop
   vertex 9.237901688 0.1410659999 3.954730034 
   vertex 1.359320998 0.1410659999 4.043169022 
   vertex 7.019254208 5.081180096 4.455517769 
  endloop
 endfacet
 facet normal -0.004524 0.098843 -0.995093
  outer loop
   vertex 7.019254208 5.081180096 4.455517769 
   vertex 10.85905457 5.081180096 4.438062191 
   vertex 9.237901688 0.1410659999 3.954730034 
  endloop
 endfacet
 facet normal -0.657575 0.753389 0.000000
  outer loop
   vertex 1.359320998 0.1410659999 4.043169022 
   vertex 1.359320998 0.1410659999 5.159104824 
   vertex 7.019254208 5.081180096 4.67577219 
  endloop
 endfacet
 facet normal -0.657574 0.753389 0.000000
  outer loop
   vertex 7.019254208 5.081180096 4.67577219 
   vertex 7.019254208 5.081180096 4.455517769 
   vertex 1.359320998 0.1410659999 4.043169022 
  endloop
 endfacet
 facet normal 0.011189 0.079528 0.996770
  outer loop
   vertex 1.359320998 0.1410659999 5.159104824 
   vertex 9.237901688 0.1410659999 5.070665836 
   vertex 10.85905457 5.081180096 4.658317089 
  endloop
 endfacet
 facet normal 0.004526 0.092234 0.995727
  outer loop
   vertex 10.85905457 5.081180096 4.658317089 
   vertex 7.019254208 5.081180096 4.67577219 
   vertex 1.359320998 0.1410659999 5.159104824 
  endloop
 endfacet
 facet normal 0.950147 -0.311801 0.000000
  outer loop
   vertex 9.237901688 0.1410659999 5.070665836 
   vertex 9.237901688 0.1410659999 3.954730034 
   vertex 10.85905457 5.081180096 4.438062191 
  endloop
 endfacet
 facet normal 0.950147 -0.311801 0.000000
  outer loop
   vertex 10.85905457 5.081180096 4.438062191 
   vertex 10.85905457 5.081180096 4.658317089 
   vertex 9.237901688 0.1410659999 5.070665836 
  endloop
 endfacet
 facet normal -0.109638 0.987991 0.108875
  outer loop
   vertex -1.697489023 -1.770339012 7.930579185 
   vertex 5.599730015 -1.30299902 11.03804874 
   vertex 0.4557110071 -1.281712055 5.664804935 
  endloop
 endfacet
 facet normal -0.672454 0.131405 0.728381
  outer loop
   vertex 9.660446167 -2.443145037 18.53779411 
   vertex 9.73933506 -2.054832935 18.54057121 
   vertex -1.697489023 -1.770339012 7.930579185 
  endloop
 endfacet
 facet normal -0.681502 0.025699 0.731365
  outer loop
   vertex -1.697489023 -1.770339012 7.930579185 
   vertex -1.720366955 -2.354104996 7.929773808 
   vertex 9.660446167 -2.443145037 18.53779411 
  endloop
 endfacet
 facet normal -0.276494 -0.916549 0.288943
  outer loop
   vertex 0.3532359898 -3.985476017 4.739205837 
   vertex 9.660446167 -2.443145037 18.53779411 
   vertex -1.720366955 -2.354104996 7.929773808 
  endloop
 endfacet
 facet normal 1.000000 0.000006 0.000000
  outer loop
   vertex 17.57100487 -1.856724024 2.390707016 
   vertex 17.57100487 -2.617331982 1.851613998 
   vertex 17.57100487 -2.312916994 1.633190036 
  endloop
 endfacet
 facet normal 1.000000 -0.000013 0.000000
  outer loop
   vertex 17.57100487 -2.312916994 1.633190036 
   vertex 17.57100487 -1.854928017 2.069972038 
   vertex 17.57100487 -1.856724024 2.390707016 
  endloop
 endfacet
 facet normal 1.000000 0.000000 0.000000
  outer loop
   vertex 17.57100487 -2.617331982 1.851613998 
   vertex 17.57100487 -2.617331982 0 
   vertex 17.57100487 -2.312916994 0 
  endloop
 endfacet
 facet normal 1.000000 0.000000 0.000000
  outer loop
   vertex 17.57100487 -2.312916994 0 
   vertex 17.57100487 -2.312916994 1.633190036 
   vertex 17.57100487 -2.617331982 1.851613998 
  endloop
 endfacet
 facet normal 1.000000 0.000000 0.000000
  outer loop
   vertex 17.57100487 0.06204900146 0 
   vertex 17.57100487 0.06204900146 1.765858054 
   vertex 17.57100487 -0.242366001 1.544841051 
  endloop
 endfacet
 facet normal 1.000000 0.000000 0.000000
  outer loop
   vertex 17.57100487 -0.242366001 1.544841051 
   vertex 17.57100487 -0.242366001 0 
   vertex 17.57100487 0.06204900146 0 
  endloop
 endfacet
 facet normal 1.000000 0.000000 0.000000
  outer loop
   vertex 17.57100487 0.06204900146 1.765858054 
   vertex 17.57100487 -1.856724024 2.390707016 
   vertex 17.57100487 -1.854928017 2.069972038 
  endloop
 endfacet
 facet normal 1.000000 0.000002 0.000000
  outer loop
   vertex 17.57100487 -1.854928017 2.069972038 
   vertex 17.57100487 -0.242366001 1.544841051 
   vertex 17.57100487 0.06204900146 1.765858054 
  endloop
 endfacet
 facet normal 0.000000 0.690153 -0.723663
  outer loop
   vertex 17.57100487 -1.854928017 2.069972038 
   vertex 17.57100487 -2.312916994 1.633190036 
   vertex 16.62644386 -2.312916994 1.633190036 
  endloop
 endfacet
 facet normal 0.000000 0.690155 -0.723662
  outer loop
   vertex 16.62644386 -2.312916994 1.633190036 
   vertex 16.62644386 -1.854928017 2.069972038 
   vertex 17.57100487 -1.854928017 2.069972038 
  endloop
 endfacet
 facet normal 0.000000 1.000000 0.000000
  outer loop
   vertex 17.57100487 -2.312916994 1.633190036 
   vertex 17.57100487 -2.312916994 0 
   vertex 16.62644386 -2.312916994 0 
  endloop
 endfacet
 facet normal 0.000000 1.000000 0.000000
  outer loop
   vertex 16.62644386 -2.312916994 0 
   vertex 16.62644386 -2.312916994 1.633190036 
   vertex 17.57100487 -2.312916994 1.633190036 
  endloop
 endfacet
 facet normal 0.000000 -1.000000 0.000000
  outer loop
   vertex 17.57100487 -0.242366001 0 
   vertex 17.57100487 -0.242366001 1.544841051 
   vertex 16.62644386 -0.242366001 1.544841051 
  endloop
 endfacet
 facet normal 0.000000 -1.000000 0.000000
  outer loop
   vertex 16.62644386 -0.242366001 1.544841051 
   vertex 16.62644386 -0.242366001 0 
   vertex 17.57100487 -0.242366001 0 
  endloop
 endfacet
 facet normal 0.000000 -0.309646 -0.950852
  outer loop
   vertex 17.57100487 -0.242366001 1.544841051 
   vertex 17.57100487 -1.854928017 2.069972038 
   vertex 16.62644386 -1.854928017 2.069972038 
  endloop
 endfacet
 facet normal 0.000000 -0.309645 -0.950852
  outer loop
   vertex 16.62644386 -1.854928017 2.069972038 
   vertex 16.62644386 -0.242366001 1.544841051 
   vertex 17.57100487 -0.242366001 1.544841051 
  endloop
 endfacet
 facet normal -1.000000 0.000000 0.000000
  outer loop
   vertex -17.57100487 -4.892487049 0 
   vertex -17.57100487 -4.892487049 0.8310130239 
   vertex -17.57100487 -4.614542007 0.6434280276 
  endloop
 endfacet
 facet normal -1.000000 0.000000 0.000000
  outer loop
   vertex -17.57100487 -4.614542007 0.6434280276 
   vertex -17.57100487 -4.614542007 0 
   vertex -17.57100487 -4.892487049 0 
  endloop
 endfacet
 facet normal -1.000000 0.000002 0.000000
  outer loop
   vertex -17.57100487 -4.892487049 0.8310130239 
   vertex -17.57100487 -3.162489891 1.528885961 
   vertex -17.57100487 -3.177258015 1.223222017 
  endloop
 endfacet
 facet normal -1.000000 0.000000 0.000000
  outer loop
   vertex -17.57100487 -3.177258015 1.223222017 
   vertex -17.57100487 -4.614542007 0.6434280276 
   vertex -17.57100487 -4.892487049 0.8310130239 
  endloop
 endfacet
 facet normal -1.000000 0.000000 0.000000
  outer loop
   vertex -17.57100487 -3.162489891 1.528885961 
   vertex -17.57100487 -2.110989094 0.9814810157 
   vertex -17.57100487 -2.388932943 0.8128250241 
  endloop
 endfacet
 facet normal -1.000000 0.000000 0.000000
  outer loop
   vertex -17.57100487 -2.388932943 0.8128250241 
   vertex -17.57100487 -3.177258015 1.223222017 
   vertex -17.57100487 -3.162489891 1.528885961 
  endloop
 endfacet
 facet normal -1.000000 0.000000 0.000000
  outer loop
   vertex -17.57100487 -2.110989094 0.9814810157 
   vertex -17.57100487 -2.110989094 0 
   vertex -17.57100487 -2.388932943 0 
  endloop
 endfacet
 facet normal -1.000000 0.000000 0.000000
  outer loop
   vertex -17.57100487 -2.388932943 0 
   vertex -17.57100487 -2.388932943 0.8128250241 
   vertex -17.57100487 -2.110989094 0.9814810157 
  endloop
 endfacet
 facet normal 0.000000 1.000000 0.000000
  outer loop
   vertex -17.57100487 -4.614542007 0 
   vertex -17.57100487 -4.614542007 0.6434280276 
   vertex -16.62937546 -4.614542007 0.6434280276 
  endloop
 endfacet
 facet normal 0.000000 1.000000 0.000000
  outer loop
   vertex -16.62937546 -4.614542007 0.6434280276 
   vertex -16.62937546 -4.614542007 0 
   vertex -17.57100487 -4.614542007 0 
  endloop
 endfacet
 facet normal 0.000000 0.374104 -0.927387
  outer loop
   vertex -17.57100487 -4.614542007 0.6434280276 
   vertex -17.57100487 -3.177258015 1.223222017 
   vertex -16.62937546 -3.177258015 1.223222017 
  endloop
 endfacet
 facet normal 0.000000 0.374103 -0.927387
  outer loop
   vertex -16.62937546 -3.177258015 1.223222017 
   vertex -16.62937546 -4.614542007 0.6434280276 
   vertex -17.57100487 -4.614542007 0.6434280276 
  endloop
 endfacet
 facet normal 0.000000 -0.461769 -0.887000
  outer loop
   vertex -17.57100487 -3.177258015 1.223222017 
   vertex -17.57100487 -2.388932943 0.8128250241 
   vertex -16.62937546 -2.388932943 0.8128250241 
  endloop
 endfacet
 facet normal 0.000000 -0.461766 -0.887002
  outer loop
   vertex -16.62937546 -2.388932943 0.8128250241 
   vertex -16.62937546 -3.177258015 1.223222017 
   vertex -17.57100487 -3.177258015 1.223222017 
  endloop
 endfacet
 facet normal 0.000000 -1.000000 0.000000
  outer loop
   vertex -17.57100487 -2.388932943 0.8128250241 
   vertex -17.57100487 -2.388932943 0 
   vertex -16.62937546 -2.388932943 0 
  endloop
 endfacet
 facet normal 0.000000 -1.000000 0.000000
  outer loop
   vertex -16.62937546 -2.388932943 0 
   vertex -16.62937546 -2.388932943 0.8128250241 
   vertex -17.57100487 -2.388932943 0.8128250241 
  endloop
 endfacet
 facet normal -0.047229 0.917648 0.394578
  outer loop
   vertex -7.985092163 -1.109984994 2.785543919 
   vertex -7.985092163 -1.762945056 4.304096222 
   vertex -1.879593968 -1.791923046 5.102283001 
  endloop
 endfacet
 facet normal -0.026383 0.937999 0.345631
  outer loop
   vertex -1.879593968 -1.791923046 5.102283001 
   vertex -1.915868998 -1.120062947 3.276170015 
   vertex -7.985092163 -1.109984994 2.785543919 
  endloop
 endfacet
 facet normal 0.406318 0.911344 0.066019
  outer loop
   vertex 12.17534256 -1.805117965 4.837200165 
   vertex 10.62552261 -1.099228978 4.63138485 
   vertex 10.29824066 -1.30299902 9.458521843 
  endloop
 endfacet
 facet normal -0.136077 0.975505 0.172838
  outer loop
   vertex -1.697489023 -1.770339012 7.930579185 
   vertex 9.73933506 -2.054832935 18.54057121 
   vertex 5.599730015 -1.30299902 11.03804874 
  endloop
 endfacet
 facet normal 0.268602 0.538021 0.798991
  outer loop
   vertex 5.599730015 -1.30299902 11.03804874 
   vertex 10.29824066 -1.30299902 9.458521843 
   vertex 10.14286423 -0.5931299925 9.032747269 
  endloop
 endfacet
 facet normal 0.230343 0.627313 0.743923
  outer loop
   vertex 10.14286423 -0.5931299925 9.032747269 
   vertex 5.5761199 -0.5931299925 10.44676208 
   vertex 5.599730015 -1.30299902 11.03804874 
  endloop
 endfacet
 facet normal -0.244601 0.052075 0.968225
  outer loop
   vertex -1.879593968 -1.791923046 5.102283001 
   vertex 0.4557110071 -1.281712055 5.664804935 
   vertex 0.9266309738 0.1410659999 5.707249165 
  endloop
 endfacet
 facet normal -0.234624 0.364642 0.901103
  outer loop
   vertex -1.915868998 -1.120062947 3.276170015 
   vertex 0.9266309738 0.1410659999 3.505953074 
   vertex -2.434695005 2.192449093 1.800634027 
  endloop
 endfacet
 facet normal -1.000000 0.000000 0.000000
  outer loop
   vertex -16.62937546 -4.614542007 0.6434280276 
   vertex -16.62937546 -3.177258015 1.223222017 
   vertex -16.62937546 -2.388932943 0.8128250241 
  endloop
 endfacet
 facet normal 1.000000 -0.000001 0.000000
  outer loop
   vertex 16.62644386 -0.242366001 1.544841051 
   vertex 16.62644386 -1.854928017 2.069972038 
   vertex 16.62644386 -2.312916994 1.633190036 
  endloop
 endfacet
 facet normal 0.669178 0.743102 0.000000
  outer loop
   vertex 8.138238907 2.026956081 0 
   vertex 8.138238907 2.026956081 1.881474972 
   vertex 8.462802887 1.734680057 1.621214032 
  endloop
 endfacet
 facet normal 0.669178 0.743103 0.000000
  outer loop
   vertex 8.462802887 1.734680057 1.621214032 
   vertex 8.462802887 1.734680057 0 
   vertex 8.138238907 2.026956081 0 
  endloop
 endfacet
 facet normal 0.010854 -0.999941 -0.000000
  outer loop
   vertex 0.3647519946 -4.990542889 0 
   vertex -7.985091209 -5.081180096 0 
   vertex -7.985091209 -5.081179142 -2.665627956 
  endloop
 endfacet
 facet normal 0.010854 -0.999941 0.000000
  outer loop
   vertex -7.985091209 -5.081179142 -2.665627956 
   vertex 0.3647519946 -4.990542889 -3.386035919 
   vertex 0.3647519946 -4.990542889 0 
  endloop
 endfacet
 facet normal -0.248584 0.968610 0.000000
  outer loop
   vertex -2.434695005 2.192449093 -1.800634027 
   vertex -6.758756161 1.082721949 -1.260434031 
   vertex -6.758756161 1.082721949 0 
  endloop
 endfacet
 facet normal -0.248584 0.968610 0.000000
  outer loop
   vertex -6.758756161 1.082721949 0 
   vertex -2.434695005 2.192449093 0 
   vertex -2.434695005 2.192449093 -1.800634027 
  endloop
 endfacet
 facet normal 1.000000 0.000000 0.000000
  outer loop
   vertex 16.62644386 -2.312916994 0 
   vertex 16.62644386 -2.312916994 -1.633190036 
   vertex 16.62644386 -0.242366001 -1.544841051 
  endloop
 endfacet
 facet normal 1.000000 0.000000 0.000000
  outer loop
   vertex 16.62644386 -0.242366001 -1.544841051 
   vertex 16.62644386 -0.242366001 0 
   vertex 16.62644386 -2.312916994 0 
  endloop
 endfacet
 facet normal -1.000000 0.000000 0.000000
  outer loop
   vertex -16.62937546 -4.614542007 -0.6434280276 
   vertex -16.62937546 -4.614542007 0 
   vertex -16.62937546 -2.388932943 0 
  endloop
 endfacet
 facet normal -1.000000 0.000000 0.000000
  outer loop
   vertex -16.62937546 -2.388932943 0 
   vertex -16.62937546 -2.388932943 -0.8128250241 
   vertex -16.62937546 -4.614542007 -0.6434280276 
  endloop
 endfacet
 facet normal 0.245102 -0.969497 0.000000
  outer loop
   vertex 17.57100487 -2.617331982 0 
   vertex 10.23246956 -4.472611904 0 
   vertex 10.23247147 -4.472611904 -3.286669016 
  endloop
 endfacet
 facet normal 0.245102 -0.969497 0.000000
  outer loop
   vertex 10.23247147 -4.472611904 -3.286669016 
   vertex 17.57100487 -2.617331982 -1.851613998 
   vertex 17.57100487 -2.617331982 0 
  endloop
 endfacet
 facet normal 0.052415 -0.998625 0.000000
  outer loop
   vertex 10.23246956 -4.472611904 0 
   vertex 0.3647519946 -4.990542889 0 
   vertex 0.3647519946 -4.990542889 -3.386035919 
  endloop
 endfacet
 facet normal 0.052415 -0.998625 0.000000
  outer loop
   vertex 0.3647519946 -4.990542889 -3.386035919 
   vertex 10.23247147 -4.472611904 -3.286669016 
   vertex 10.23246956 -4.472611904 0 
  endloop
 endfacet
 facet normal -0.019681 -0.999806 -0.000000
  outer loop
   vertex -17.57100487 -4.892487049 -0.8310130239 
   vertex -7.985091209 -5.081179142 -2.665627956 
   vertex -7.985091209 -5.081180096 0 
  endloop
 endfacet
 facet normal -0.019681 -0.999806 0.000000
  outer loop
   vertex -7.985091209 -5.081180096 0 
   vertex -17.57100487 -4.892487049 0 
   vertex -17.57100487 -4.892487049 -0.8310130239 
  endloop
 endfacet
 facet normal 0.062163 0.998066 0.000000
  outer loop
   vertex 8.138238907 2.026956081 -1.881474972 
   vertex 2.958075047 2.349592924 -1.953546047 
   vertex 2.958075047 2.349592924 0 
  endloop
 endfacet
 facet normal 0.062163 0.998066 0.000000
  outer loop
   vertex 2.958075047 2.349592924 0 
   vertex 8.138238907 2.026956081 0 
   vertex 8.138238907 2.026956081 -1.881474972 
  endloop
 endfacet
 facet normal 0.406018 -0.088993 -0.909521
  outer loop
   vertex 14.1143198 -2.415396929 -16.55226517 
   vertex 9.660446167 -2.443145037 -18.53779411 
   vertex 9.73933506 -2.054832935 -18.54057121 
  endloop
 endfacet
 facet normal 0.410038 -0.047442 -0.910834
  outer loop
   vertex 9.73933506 -2.054832935 -18.54057121 
   vertex 14.16251945 -2.054832935 -16.54934692 
   vertex 14.1143198 -2.415396929 -16.55226517 
  endloop
 endfacet
 facet normal -0.209138 -0.365831 -0.906879
  outer loop
   vertex -17.57100487 -4.892487049 -0.8310130239 
   vertex -17.57100487 -3.162489891 -1.528885961 
   vertex -7.985092163 -1.762945056 -4.304096222 
  endloop
 endfacet
 facet normal -0.177459 -0.435717 -0.882416
  outer loop
   vertex -7.985092163 -1.762945056 -4.304096222 
   vertex -7.985091209 -5.081179142 -2.665627956 
   vertex -17.57100487 -4.892487049 -0.8310130239 
  endloop
 endfacet
 facet normal 0.041664 -0.801918 -0.595980
  outer loop
   vertex 0.3647519946 -4.990542889 -3.386035919 
   vertex 0.3532359898 -3.985476017 -4.739205837 
   vertex 10.11023235 -3.543668985 -4.651575089 
  endloop
 endfacet
 facet normal 0.048921 -0.823666 -0.564961
  outer loop
   vertex 10.11023235 -3.543668985 -4.651575089 
   vertex 10.23247147 -4.472611904 -3.286669016 
   vertex 0.3647519946 -4.990542889 -3.386035919 
  endloop
 endfacet
 facet normal 0.299709 -0.775998 -0.554979
  outer loop
   vertex 10.23247147 -4.472611904 -3.286669016 
   vertex 10.11023235 -3.543668985 -4.651575089 
   vertex 12.17534256 -2.613320112 -4.837200165 
  endloop
 endfacet
 facet normal 0.304203 -0.777218 -0.550811
  outer loop
   vertex 12.17534256 -2.613320112 -4.837200165 
   vertex 17.57100487 -2.617331982 -1.851613998 
   vertex 10.23247147 -4.472611904 -3.286669016 
  endloop
 endfacet
 facet normal 0.398196 0.284038 -0.872217
  outer loop
   vertex 17.57100487 -1.856724024 -2.390707016 
   vertex 12.17534256 -1.805117965 -4.837200165 
   vertex 17.57100487 0.06204900146 -1.765858054 
  endloop
 endfacet
 facet normal 0.196301 0.646056 -0.737616
  outer loop
   vertex 17.57100487 0.06204900146 -1.765858054 
   vertex 12.17534256 -1.805117965 -4.837200165 
   vertex 10.62552261 -1.099228978 -4.63138485 
  endloop
 endfacet
 facet normal 0.159059 0.718765 -0.676814
  outer loop
   vertex 10.62552261 -1.099228978 -4.63138485 
   vertex 10.23246956 0.1410659999 -3.406585932 
   vertex 17.57100487 0.06204900146 -1.765858054 
  endloop
 endfacet
 facet normal -0.567268 0.823533 0.000000
  outer loop
   vertex 0.9266309738 0.1410659999 -3.505953074 
   vertex 0.9266309738 0.1410659999 -5.707249165 
   vertex -1.879593968 -1.791923046 -5.102283001 
  endloop
 endfacet
 facet normal -0.405524 0.855225 -0.322708
  outer loop
   vertex -1.879593968 -1.791923046 -5.102283001 
   vertex -1.915868998 -1.120062947 -3.276170015 
   vertex 0.9266309738 0.1410659999 -3.505953074 
  endloop
 endfacet
 facet normal -0.129629 0.000000 -0.991563
  outer loop
   vertex -7.985092163 -1.762945056 -4.304096222 
   vertex -1.879593968 -1.791923046 -5.102283001 
   vertex -1.879593968 -2.348531008 -5.102283001 
  endloop
 endfacet
 facet normal -0.157687 -0.437205 -0.885430
  outer loop
   vertex -1.879593968 -2.348531008 -5.102283001 
   vertex -7.985091209 -5.081179142 -2.665627956 
   vertex -7.985092163 -1.762945056 -4.304096222 
  endloop
 endfacet
 facet normal -0.442541 -0.721695 -0.532272
  outer loop
   vertex -1.879593968 -2.348531008 -5.102283001 
   vertex 0.3532359898 -3.985476017 -4.739205837 
   vertex 0.3647519946 -4.990542889 -3.386035919 
  endloop
 endfacet
 facet normal -0.063690 -0.581132 -0.811313
  outer loop
   vertex 0.3647519946 -4.990542889 -3.386035919 
   vertex -7.985091209 -5.081179142 -2.665627956 
   vertex -1.879593968 -2.348531008 -5.102283001 
  endloop
 endfacet
 facet normal 0.042913 -0.995679 -0.082347
  outer loop
   vertex 0.3532359898 -3.985476017 -4.739205837 
   vertex 9.660446167 -2.443145037 -18.53779411 
   vertex 14.1143198 -2.415396929 -16.55226517 
  endloop
 endfacet
 facet normal 0.045801 -0.995822 -0.079001
  outer loop
   vertex 14.1143198 -2.415396929 -16.55226517 
   vertex 10.11023235 -3.543668985 -4.651575089 
   vertex 0.3532359898 -3.985476017 -4.739205837 
  endloop
 endfacet
 facet normal 0.414139 -0.908658 0.053193
  outer loop
   vertex 10.11023235 -3.543668985 -4.651575089 
   vertex 14.1143198 -2.415396929 -16.55226517 
   vertex 12.17534256 -2.613320112 -4.837200165 
  endloop
 endfacet
 facet normal 0.978293 -0.132067 0.159688
  outer loop
   vertex 12.17534256 -2.613320112 -4.837200165 
   vertex 14.1143198 -2.415396929 -16.55226517 
   vertex 14.16251945 -2.054832935 -16.54934692 
  endloop
 endfacet
 facet normal 0.985910 0.000000 0.167277
  outer loop
   vertex 14.16251945 -2.054832935 -16.54934692 
   vertex 12.17534256 -1.805117965 -4.837200165 
   vertex 12.17534256 -2.613320112 -4.837200165 
  endloop
 endfacet
 facet normal 0.220139 0.975328 0.016555
  outer loop
   vertex 12.17534256 -1.805117965 -4.837200165 
   vertex 14.16251945 -2.054832935 -16.54934692 
   vertex 10.29824066 -1.30299902 -9.458521843 
  endloop
 endfacet
 facet normal -0.214906 0.976614 -0.006384
  outer loop
   vertex -1.879593968 -1.791923046 -5.102283001 
   vertex 0.4557110071 -1.281712055 -5.664804935 
   vertex -1.697489023 -1.770339012 -7.930579185 
  endloop
 endfacet
 facet normal -0.997934 0.000000 -0.064254
  outer loop
   vertex -1.879593968 -2.348531008 -5.102283001 
   vertex -1.879593968 -1.791923046 -5.102283001 
   vertex -1.697489023 -1.770339012 -7.930579185 
  endloop
 endfacet
 facet normal -0.997653 0.039020 -0.056259
  outer loop
   vertex -1.697489023 -1.770339012 -7.930579185 
   vertex -1.720366955 -2.354104996 -7.929773808 
   vertex -1.879593968 -2.348531008 -5.102283001 
  endloop
 endfacet
 facet normal -0.587625 -0.808520 -0.031498
  outer loop
   vertex -1.879593968 -2.348531008 -5.102283001 
   vertex -1.720366955 -2.354104996 -7.929773808 
   vertex 0.3532359898 -3.985476017 -4.739205837 
  endloop
 endfacet
 facet normal -0.308409 0.439258 -0.843763
  outer loop
   vertex -7.985092163 -1.762945056 -4.304096222 
   vertex -17.57100487 -3.162489891 -1.528885961 
   vertex -17.57100487 -2.110989094 -0.9814810157 
  endloop
 endfacet
 facet normal -0.167858 0.905638 -0.389414
  outer loop
   vertex -17.57100487 -2.110989094 -0.9814810157 
   vertex -7.985092163 -1.109984994 -2.785543919 
   vertex -7.985092163 -1.762945056 -4.304096222 
  endloop
 endfacet
 facet normal 0.412952 0.000000 -0.910753
  outer loop
   vertex 12.17534256 -2.613320112 -4.837200165 
   vertex 12.17534256 -1.805117965 -4.837200165 
   vertex 17.57100487 -1.856724024 -2.390707016 
  endloop
 endfacet
 facet normal 0.411129 -0.527123 -0.743716
  outer loop
   vertex 17.57100487 -1.856724024 -2.390707016 
   vertex 17.57100487 -2.617331982 -1.851613998 
   vertex 12.17534256 -2.613320112 -4.837200165 
  endloop
 endfacet
 facet normal 0.045646 0.546021 -0.836527
  outer loop
   vertex 0.9266309738 0.1410659999 -3.505953074 
   vertex 2.958075047 2.349592924 -1.953546047 
   vertex 8.138238907 2.026956081 -1.881474972 
  endloop
 endfacet
 facet normal 0.008254 0.634314 -0.773032
  outer loop
   vertex 8.138238907 2.026956081 -1.881474972 
   vertex 10.23246956 0.1410659999 -3.406585932 
   vertex 0.9266309738 0.1410659999 -3.505953074 
  endloop
 endfacet
 facet normal -0.255404 0.644257 -0.720903
  outer loop
   vertex -7.985092163 -1.109984994 -2.785543919 
   vertex -6.758756161 1.082721949 -1.260434031 
   vertex -2.434695005 2.192449093 -1.800634027 
  endloop
 endfacet
 facet normal -0.073328 0.396199 -0.915232
  outer loop
   vertex -2.434695005 2.192449093 -1.800634027 
   vertex -1.915868998 -1.120062947 -3.276170015 
   vertex -7.985092163 -1.109984994 -2.785543919 
  endloop
 endfacet
 facet normal -0.040132 0.599043 -0.799711
  outer loop
   vertex 0.9266309738 0.1410659999 -3.505953074 
   vertex -2.434695005 2.192449093 -1.800634027 
   vertex 2.958075047 2.349592924 -1.953546047 
  endloop
 endfacet
 facet normal -0.029127 0.999576 0.000000
  outer loop
   vertex -2.434695005 2.192449093 -1.800634027 
   vertex -2.434695005 2.192449093 0 
   vertex 2.958075047 2.349592924 0 
  endloop
 endfacet
 facet normal -0.029127 0.999576 0.000000
  outer loop
   vertex 2.958075047 2.349592924 0 
   vertex 2.958075047 2.349592924 -1.953546047 
   vertex -2.434695005 2.192449093 -1.800634027 
  endloop
 endfacet
 facet normal -0.115205 0.993342 -0.000000
  outer loop
   vertex -17.57100487 -2.110989094 0 
   vertex -15.27778625 -1.845028043 0 
   vertex -15.27778339 -1.845028043 -1.055050015 
  endloop
 endfacet
 facet normal -0.115205 0.993342 0.000000
  outer loop
   vertex -15.27778339 -1.845028043 -1.055050015 
   vertex -17.57100487 -2.110989094 -0.9814810157 
   vertex -17.57100487 -2.110989094 0 
  endloop
 endfacet
 facet normal -0.119169 0.973406 -0.195651
  outer loop
   vertex -17.57100487 -2.110989094 -0.9814810157 
   vertex -15.27778339 -1.845028043 -1.055050015 
   vertex -8.012088776 -1.213253021 -2.337310076 
  endloop
 endfacet
 facet normal -0.060129 0.973495 0.220661
  outer loop
   vertex -8.012088776 -1.213253021 -2.337310076 
   vertex -7.985092163 -1.109984994 -2.785543919 
   vertex -17.57100487 -2.110989094 -0.9814810157 
  endloop
 endfacet
 facet normal -0.891690 0.449883 0.049942
  outer loop
   vertex -7.985092163 -1.109984994 -2.785543919 
   vertex -8.012088776 -1.213253021 -2.337310076 
   vertex -6.971953869 0.7015209794 -1.01462698 
  endloop
 endfacet
 facet normal -0.872775 0.488123 0.000000
  outer loop
   vertex -6.971953869 0.7015209794 -1.01462698 
   vertex -6.758756161 1.082721949 -1.260434031 
   vertex -7.985092163 -1.109984994 -2.785543919 
  endloop
 endfacet
 facet normal -0.872774 0.488124 0.000000
  outer loop
   vertex -6.758756161 1.082721949 -1.260434031 
   vertex -6.971953869 0.7015209794 -1.01462698 
   vertex -6.971953869 0.7015209794 0 
  endloop
 endfacet
 facet normal -0.872775 0.488123 0.000000
  outer loop
   vertex -6.971953869 0.7015209794 0 
   vertex -6.758756161 1.082721949 0 
   vertex -6.758756161 1.082721949 -1.260434031 
  endloop
 endfacet
 facet normal -0.293130 0.956073 0.000000
  outer loop
   vertex -6.971953869 0.7015209794 0 
   vertex -6.971953869 0.7015209794 -1.01462698 
   vertex -15.27778339 -1.845028043 -1.055050015 
  endloop
 endfacet
 facet normal -0.293130 0.956073 -0.000001
  outer loop
   vertex -15.27778339 -1.845028043 -1.055050015 
   vertex -15.27778625 -1.845028043 0 
   vertex -6.971953869 0.7015209794 0 
  endloop
 endfacet
 facet normal -0.188036 0.625321 -0.757374
  outer loop
   vertex -8.012088776 -1.213253021 -2.337310076 
   vertex -15.27778339 -1.845028043 -1.055050015 
   vertex -6.971953869 0.7015209794 -1.01462698 
  endloop
 endfacet
 facet normal 0.672857 0.739725 -0.008384
  outer loop
   vertex 8.138238907 2.026956081 -1.881474972 
   vertex 8.462802887 1.734680057 -1.621214032 
   vertex 10.2757597 0.07050599903 -2.952924013 
  endloop
 endfacet
 facet normal 0.687186 0.724947 0.047181
  outer loop
   vertex 10.2757597 0.07050599903 -2.952924013 
   vertex 10.23246956 0.1410659999 -3.406585932 
   vertex 8.138238907 2.026956081 -1.881474972 
  endloop
 endfacet
 facet normal -0.054858 0.985824 0.158564
  outer loop
   vertex 10.23246956 0.1410659999 -3.406585932 
   vertex 10.2757597 0.07050599903 -2.952924013 
   vertex 14.59104347 0.136243999 -1.868679047 
  endloop
 endfacet
 facet normal 0.027390 0.996845 -0.074500
  outer loop
   vertex 14.59104347 0.136243999 -1.868679047 
   vertex 17.57100487 0.06204900146 -1.765858054 
   vertex 10.23246956 0.1410659999 -3.406585932 
  endloop
 endfacet
 facet normal 0.024890 0.999690 0.000000
  outer loop
   vertex 17.57100487 0.06204900146 -1.765858054 
   vertex 14.59104347 0.136243999 -1.868679047 
   vertex 14.59104156 0.136243999 0 
  endloop
 endfacet
 facet normal 0.024890 0.999690 0.000000
  outer loop
   vertex 14.59104156 0.136243999 0 
   vertex 17.57100487 0.06204900146 0 
   vertex 17.57100487 0.06204900146 -1.765858054 
  endloop
 endfacet
 facet normal 0.252387 0.967626 0.000000
  outer loop
   vertex 14.59104156 0.136243999 0 
   vertex 14.59104347 0.136243999 -1.868679047 
   vertex 8.462802887 1.734680057 -1.621214032 
  endloop
 endfacet
 facet normal 0.252387 0.967626 0.000000
  outer loop
   vertex 8.462802887 1.734680057 -1.621214032 
   vertex 8.462802887 1.734680057 0 
   vertex 14.59104156 0.136243999 0 
  endloop
 endfacet
 facet normal 0.159592 0.716923 -0.678640
  outer loop
   vertex 10.2757597 0.07050599903 -2.952924013 
   vertex 8.462802887 1.734680057 -1.621214032 
   vertex 14.59104347 0.136243999 -1.868679047 
  endloop
 endfacet
 facet normal 0.028305 0.996047 -0.084197
  outer loop
   vertex 9.73933506 -2.054832935 -18.54057121 
   vertex 5.599730015 -1.30299902 -11.03804874 
   vertex 10.29824066 -1.30299902 -9.458521843 
  endloop
 endfacet
 facet normal 0.038163 0.995669 -0.084772
  outer loop
   vertex 10.29824066 -1.30299902 -9.458521843 
   vertex 14.16251945 -2.054832935 -16.54934692 
   vertex 9.73933506 -2.054832935 -18.54057121 
  endloop
 endfacet
 facet normal 0.000000 1.000000 0.000000
  outer loop
   vertex 10.85905457 5.081180096 -4.438062191 
   vertex 10.85905457 5.081180096 -4.658317089 
   vertex 7.019254208 5.081180096 -4.67577219 
  endloop
 endfacet
 facet normal 0.000000 1.000000 0.000000
  outer loop
   vertex 7.019254208 5.081180096 -4.67577219 
   vertex 7.019254208 5.081180096 -4.455517769 
   vertex 10.85905457 5.081180096 -4.438062191 
  endloop
 endfacet
 facet normal 0.065269 0.975349 -0.210795
  outer loop
   vertex 10.23246956 0.1410659999 -5.607882023 
   vertex 10.14286423 -0.5931299925 -9.032747269 
   vertex 5.5761199 -0.5931299925 -10.44676208 
  endloop
 endfacet
 facet normal 0.001618 0.988451 -0.151533
  outer loop
   vertex 5.5761199 -0.5931299925 -10.44676208 
   vertex 0.9266309738 0.1410659999 -5.707249165 
   vertex 10.23246956 0.1410659999 -5.607882023 
  endloop
 endfacet
 facet normal -0.682627 0.205015 -0.701420
  outer loop
   vertex 0.4557110071 -1.281712055 -5.664804935 
   vertex 0.9266309738 0.1410659999 -5.707249165 
   vertex 5.5761199 -0.5931299925 -10.44676208 
  endloop
 endfacet
 facet normal -0.631178 0.483916 -0.606168
  outer loop
   vertex 5.5761199 -0.5931299925 -10.44676208 
   vertex 5.599730015 -1.30299902 -11.03804874 
   vertex 0.4557110071 -1.281712055 -5.664804935 
  endloop
 endfacet
 facet normal 0.953277 0.302098 0.000000
  outer loop
   vertex 10.23246956 0.1410659999 -3.406585932 
   vertex 10.62552261 -1.099228978 -4.63138485 
   vertex 10.23246956 0.1410659999 -5.607882023 
  endloop
 endfacet
 facet normal 0.963519 0.256575 -0.076158
  outer loop
   vertex 10.62552261 -1.099228978 -4.63138485 
   vertex 10.29824066 -1.30299902 -9.458521843 
   vertex 10.14286423 -0.5931299925 -9.032747269 
  endloop
 endfacet
 facet normal 0.966397 0.244997 -0.077805
  outer loop
   vertex 10.14286423 -0.5931299925 -9.032747269 
   vertex 10.23246956 0.1410659999 -5.607882023 
   vertex 10.62552261 -1.099228978 -4.63138485 
  endloop
 endfacet
 facet normal 0.000000 1.000000 0.000000
  outer loop
   vertex 10.23246956 0.1410659999 -3.406585932 
   vertex 9.237901688 0.1410659999 -3.954730034 
   vertex 1.359320998 0.1410659999 -4.043169022 
  endloop
 endfacet
 facet normal 0.000000 1.000000 0.000000
  outer loop
   vertex 1.359320998 0.1410659999 -4.043169022 
   vertex 0.9266309738 0.1410659999 -3.505953074 
   vertex 10.23246956 0.1410659999 -3.406585932 
  endloop
 endfacet
 facet normal 0.000000 1.000000 0.000000
  outer loop
   vertex 0.9266309738 0.1410659999 -3.505953074 
   vertex 1.359320998 0.1410659999 -4.043169022 
   vertex 1.359320998 0.1410659999 -5.159104824 
  endloop
 endfacet
 facet normal 0.000000 1.000000 0.000000
  outer loop
   vertex 1.359320998 0.1410659999 -5.159104824 
   vertex 0.9266309738 0.1410659999 -5.707249165 
   vertex 0.9266309738 0.1410659999 -3.505953074 
  endloop
 endfacet
 facet normal 0.000000 1.000000 -0.000000
  outer loop
   vertex 0.9266309738 0.1410659999 -5.707249165 
   vertex 1.359320998 0.1410659999 -5.159104824 
   vertex 9.237901688 0.1410659999 -5.070665836 
  endloop
 endfacet
 facet normal 0.000000 1.000000 0.000000
  outer loop
   vertex 9.237901688 0.1410659999 -5.070665836 
   vertex 10.23246956 0.1410659999 -5.607882023 
   vertex 0.9266309738 0.1410659999 -5.707249165 
  endloop
 endfacet
 facet normal 0.000000 1.000000 0.000000
  outer loop
   vertex 10.23246956 0.1410659999 -5.607882023 
   vertex 9.237901688 0.1410659999 -5.070665836 
   vertex 9.237901688 0.1410659999 -3.954730034 
  endloop
 endfacet
 facet normal 0.000000 1.000000 0.000000
  outer loop
   vertex 9.237901688 0.1410659999 -3.954730034 
   vertex 10.23246956 0.1410659999 -3.406585932 
   vertex 10.23246956 0.1410659999 -5.607882023 
  endloop
 endfacet
 facet normal -0.004524 0.098843 0.995093
  outer loop
   vertex 9.237901688 0.1410659999 -3.954730034 
   vertex 10.85905457 5.081180096 -4.438062191 
   vertex 7.019254208 5.081180096 -4.455517769 
  endloop
 endfacet
 facet normal -0.011173 0.095880 0.995330
  outer loop
   vertex 7.019254208 5.081180096 -4.455517769 
   vertex 1.359320998 0.1410659999 -4.043169022 
   vertex 9.237901688 0.1410659999 -3.954730034 
  endloop
 endfacet
 facet normal -0.657574 0.753389 0.000000
  outer loop
   vertex 1.359320998 0.1410659999 -4.043169022 
   vertex 7.019254208 5.081180096 -4.455517769 
   vertex 7.019254208 5.081180096 -4.67577219 
  endloop
 endfacet
 facet normal -0.657575 0.753389 0.000000
  outer loop
   vertex 7.019254208 5.081180096 -4.67577219 
   vertex 1.359320998 0.1410659999 -5.159104824 
   vertex 1.359320998 0.1410659999 -4.043169022 
  endloop
 endfacet
 facet normal 0.004526 0.092234 -0.995727
  outer loop
   vertex 1.359320998 0.1410659999 -5.159104824 
   vertex 7.019254208 5.081180096 -4.67577219 
   vertex 10.85905457 5.081180096 -4.658317089 
  endloop
 endfacet
 facet normal 0.011189 0.079528 -0.996770
  outer loop
   vertex 10.85905457 5.081180096 -4.658317089 
   vertex 9.237901688 0.1410659999 -5.070665836 
   vertex 1.359320998 0.1410659999 -5.159104824 
  endloop
 endfacet
 facet normal 0.950147 -0.311801 0.000000
  outer loop
   vertex 9.237901688 0.1410659999 -5.070665836 
   vertex 10.85905457 5.081180096 -4.658317089 
   vertex 10.85905457 5.081180096 -4.438062191 
  endloop
 endfacet
 facet normal 0.950147 -0.311801 0.000000
  outer loop
   vertex 10.85905457 5.081180096 -4.438062191 
   vertex 9.237901688 0.1410659999 -3.954730034 
   vertex 9.237901688 0.1410659999 -5.070665836 
  endloop
 endfacet
 facet normal -0.109638 0.987991 -0.108875
  outer loop
   vertex -1.697489023 -1.770339012 -7.930579185 
   vertex 0.4557110071 -1.281712055 -5.664804935 
   vertex 5.599730015 -1.30299902 -11.03804874 
  endloop
 endfacet
 facet normal -0.681502 0.025699 -0.731365
  outer loop
   vertex 9.660446167 -2.443145037 -18.53779411 
   vertex -1.720366955 -2.354104996 -7.929773808 
   vertex -1.697489023 -1.770339012 -7.930579185 
  endloop
 endfacet
 facet normal -0.672454 0.131405 -0.728381
  outer loop
   vertex -1.697489023 -1.770339012 -7.930579185 
   vertex 9.73933506 -2.054832935 -18.54057121 
   vertex 9.660446167 -2.443145037 -18.53779411 
  endloop
 endfacet
 facet normal -0.276494 -0.916549 -0.288943
  outer loop
   vertex 0.3532359898 -3.985476017 -4.739205837 
   vertex -1.720366955 -2.354104996 -7.929773808 
   vertex 9.660446167 -2.443145037 -18.53779411 
  endloop
 endfacet
 facet normal 1.000000 -0.000013 0.000000
  outer loop
   vertex 17.57100487 -1.856724024 -2.390707016 
   vertex 17.57100487 -1.854928017 -2.069972038 
   vertex 17.57100487 -2.312916994 -1.633190036 
  endloop
 endfacet
 facet normal 1.000000 0.000006 0.000000
  outer loop
   vertex 17.57100487 -2.312916994 -1.633190036 
   vertex 17.57100487 -2.617331982 -1.851613998 
   vertex 17.57100487 -1.856724024 -2.390707016 
  endloop
 endfacet
 facet normal 1.000000 0.000000 0.000000
  outer loop
   vertex 17.57100487 -2.617331982 -1.851613998 
   vertex 17.57100487 -2.312916994 -1.633190036 
   vertex 17.57100487 -2.312916994 0 
  endloop
 endfacet
 facet normal 1.000000 0.000000 0.000000
  outer loop
   vertex 17.57100487 -2.312916994 0 
   vertex 17.57100487 -2.617331982 0 
   vertex 17.57100487 -2.617331982 -1.851613998 
  endloop
 endfacet
 facet normal 1.000000 0.000000 0.000000
  outer loop
   vertex 17.57100487 0.06204900146 0 
   vertex 17.57100487 -0.242366001 0 
   vertex 17.57100487 -0.242366001 -1.544841051 
  endloop
 endfacet
 facet normal 1.000000 0.000000 0.000000
  outer loop
   vertex 17.57100487 -0.242366001 -1.544841051 
   vertex 17.57100487 0.06204900146 -1.765858054 
   vertex 17.57100487 0.06204900146 0 
  endloop
 endfacet
 facet normal 1.000000 0.000002 0.000000
  outer loop
   vertex 17.57100487 0.06204900146 -1.765858054 
   vertex 17.57100487 -0.242366001 -1.544841051 
   vertex 17.57100487 -1.854928017 -2.069972038 
  endloop
 endfacet
 facet normal 1.000000 0.000000 0.000000
  outer loop
   vertex 17.57100487 -1.854928017 -2.069972038 
   vertex 17.57100487 -1.856724024 -2.390707016 
   vertex 17.57100487 0.06204900146 -1.765858054 
  endloop
 endfacet
 facet normal 0.000000 0.690155 0.723662
  outer loop
   vertex 17.57100487 -1.854928017 -2.069972038 
   vertex 16.62644386 -1.854928017 -2.069972038 
   vertex 16.62644386 -2.312916994 -1.633190036 
  endloop
 endfacet
 facet normal 0.000000 0.690153 0.723663
  outer loop
   vertex 16.62644386 -2.312916994 -1.633190036 
   vertex 17.57100487 -2.312916994 -1.633190036 
   vertex 17.57100487 -1.854928017 -2.069972038 
  endloop
 endfacet
 facet normal 0.000000 1.000000 0.000000
  outer loop
   vertex 17.57100487 -2.312916994 -1.633190036 
   vertex 16.62644386 -2.312916994 -1.633190036 
   vertex 16.62644386 -2.312916994 0 
  endloop
 endfacet
 facet normal 0.000000 1.000000 0.000000
  outer loop
   vertex 16.62644386 -2.312916994 0 
   vertex 17.57100487 -2.312916994 0 
   vertex 17.57100487 -2.312916994 -1.633190036 
  endloop
 endfacet
 facet normal 0.000000 -1.000000 0.000000
  outer loop
   vertex 17.57100487 -0.242366001 0 
   vertex 16.62644386 -0.242366001 0 
   vertex 16.62644386 -0.242366001 -1.544841051 
  endloop
 endfacet
 facet normal 0.000000 -1.000000 0.000000
  outer loop
   vertex 16.62644386 -0.242366001 -1.544841051 
   vertex 17.57100487 -0.242366001 -1.544841051 
   vertex 17.57100487 -0.242366001 0 
  endloop
 endfacet
 facet normal 0.000000 -0.309645 0.950852
  outer loop
   vertex 17.57100487 -0.242366001 -1.544841051 
   vertex 16.62644386 -0.242366001 -1.544841051 
   vertex 16.62644386 -1.854928017 -2.069972038 
  endloop
 endfacet
 facet normal 0.000000 -0.309646 0.950852
  outer loop
   vertex 16.62644386 -1.854928017 -2.069972038 
   vertex 17.57100487 -1.854928017 -2.069972038 
   vertex 17.57100487 -0.242366001 -1.544841051 
  endloop
 endfacet
 facet normal -1.000000 0.000000 0.000000
  outer loop
   vertex -17.57100487 -4.892487049 0 
   vertex -17.57100487 -4.614542007 0 
   vertex -17.57100487 -4.614542007 -0.6434280276 
  endloop
 endfacet
 facet normal -1.000000 0.000000 0.000000
  outer loop
   vertex -17.57100487 -4.614542007 -0.6434280276 
   vertex -17.57100487 -4.892487049 -0.8310130239 
   vertex -17.57100487 -4.892487049 0 
  endloop
 endfacet
 facet normal -1.000000 0.000000 0.000000
  outer loop
   vertex -17.57100487 -4.892487049 -0.8310130239 
   vertex -17.57100487 -4.614542007 -0.6434280276 
   vertex -17.57100487 -3.177258015 -1.223222017 
  endloop
 endfacet
 facet normal -1.000000 0.000002 0.000000
  outer loop
   vertex -17.57100487 -3.177258015 -1.223222017 
   vertex -17.57100487 -3.162489891 -1.528885961 
   vertex -17.57100487 -4.892487049 -0.8310130239 
  endloop
 endfacet
 facet normal -1.000000 0.000000 0.000000
  outer loop
   vertex -17.57100487 -3.162489891 -1.528885961 
   vertex -17.57100487 -3.177258015 -1.223222017 
   vertex -17.57100487 -2.388932943 -0.8128250241 
  endloop
 endfacet
 facet normal -1.000000 0.000000 0.000000
  outer loop
   vertex -17.57100487 -2.388932943 -0.8128250241 
   vertex -17.57100487 -2.110989094 -0.9814810157 
   vertex -17.57100487 -3.162489891 -1.528885961 
  endloop
 endfacet
 facet normal -1.000000 0.000000 0.000000
  outer loop
   vertex -17.57100487 -2.110989094 -0.9814810157 
   vertex -17.57100487 -2.388932943 -0.8128250241 
   vertex -17.57100487 -2.388932943 0 
  endloop
 endfacet
 facet normal -1.000000 0.000000 0.000000
  outer loop
   vertex -17.57100487 -2.388932943 0 
   vertex -17.57100487 -2.110989094 0 
   vertex -17.57100487 -2.110989094 -0.9814810157 
  endloop
 endfacet
 facet normal 0.000000 1.000000 0.000000
  outer loop
   vertex -17.57100487 -4.614542007 0 
   vertex -16.62937546 -4.614542007 0 
   vertex -16.62937546 -4.614542007 -0.6434280276 
  endloop
 endfacet
 facet normal 0.000000 1.000000 0.000000
  outer loop
   vertex -16.62937546 -4.614542007 -0.6434280276 
   vertex -17.57100487 -4.614542007 -0.6434280276 
   vertex -17.57100487 -4.614542007 0 
  endloop
 endfacet
 facet normal 0.000000 0.374103 0.927387
  outer loop
   vertex -17.57100487 -4.614542007 -0.6434280276 
   vertex -16.62937546 -4.614542007 -0.6434280276 
   vertex -16.62937546 -3.177258015 -1.223222017 
  endloop
 endfacet
 facet normal 0.000000 0.374104 0.927387
  outer loop
   vertex -16.62937546 -3.177258015 -1.223222017 
   vertex -17.57100487 -3.177258015 -1.223222017 
   vertex -17.57100487 -4.614542007 -0.6434280276 
  endloop
 endfacet
 facet normal 0.000000 -0.461766 0.887002
  outer loop
   vertex -17.57100487 -3.177258015 -1.223222017 
   vertex -16.62937546 -3.177258015 -1.223222017 
   vertex -16.62937546 -2.388932943 -0.8128250241 
  endloop
 endfacet
 facet normal 0.000000 -0.461769 0.887000
  outer loop
   vertex -16.62937546 -2.388932943 -0.8128250241 
   vertex -17.57100487 -2.388932943 -0.8128250241 
   vertex -17.57100487 -3.177258015 -1.223222017 
  endloop
 endfacet
 facet normal 0.000000 -1.000000 0.000000
  outer loop
   vertex -17.57100487 -2.388932943 -0.8128250241 
   vertex -16.62937546 -2.388932943 -0.8128250241 
   vertex -16.62937546 -2.388932943 0 
  endloop
 endfacet
 facet normal 0.000000 -1.000000 0.000000
  outer loop
   vertex -16.62937546 -2.388932943 0 
   vertex -17.57100487 -2.388932943 0 
   vertex -17.57100487 -2.388932943 -0.8128250241 
  endloop
 endfacet
 facet normal -0.026383 0.937999 -0.345631
  outer loop
   vertex -7.985092163 -1.109984994 -2.785543919 
   vertex -1.915868998 -1.120062947 -3.276170015 
   vertex -1.879593968 -1.791923046 -5.102283001 
  endloop
 endfacet
 facet normal -0.047229 0.917648 -0.394578
  outer loop
   vertex -1.879593968 -1.791923046 -5.102283001 
   vertex -7.985092163 -1.762945056 -4.304096222 
   vertex -7.985092163 -1.109984994 -2.785543919 
  endloop
 endfacet
 facet normal 0.406318 0.911344 -0.066019
  outer loop
   vertex 12.17534256 -1.805117965 -4.837200165 
   vertex 10.29824066 -1.30299902 -9.458521843 
   vertex 10.62552261 -1.099228978 -4.63138485 
  endloop
 endfacet
 facet normal -0.136077 0.975505 -0.172838
  outer loop
   vertex -1.697489023 -1.770339012 -7.930579185 
   vertex 5.599730015 -1.30299902 -11.03804874 
   vertex 9.73933506 -2.054832935 -18.54057121 
  endloop
 endfacet
 facet normal 0.230343 0.627313 -0.743923
  outer loop
   vertex 5.599730015 -1.30299902 -11.03804874 
   vertex 5.5761199 -0.5931299925 -10.44676208 
   vertex 10.14286423 -0.5931299925 -9.032747269 
  endloop
 endfacet
 facet normal 0.268602 0.538021 -0.798991
  outer loop
   vertex 10.14286423 -0.5931299925 -9.032747269 
   vertex 10.29824066 -1.30299902 -9.458521843 
   vertex 5.599730015 -1.30299902 -11.03804874 
  endloop
 endfacet
 facet normal -0.244601 0.052075 -0.968225
  outer loop
   vertex -1.879593968 -1.791923046 -5.102283001 
   vertex 0.9266309738 0.1410659999 -5.707249165 
   vertex 0.4557110071 -1.281712055 -5.664804935 
  endloop
 endfacet
 facet normal -0.234624 0.364642 -0.901103
  outer loop
   vertex -1.915868998 -1.120062947 -3.276170015 
   vertex -2.434695005 2.192449093 -1.800634027 
   vertex 0.9266309738 0.1410659999 -3.505953074 
  endloop
 endfacet
 facet normal -1.000000 0.000000 0.000000
  outer loop
   vertex -16.62937546 -4.614542007 -0.6434280276 
   vertex -16.62937546 -2.388932943 -0.8128250241 
   vertex -16.62937546 -3.177258015 -1.223222017 
  endloop
 endfacet
 facet normal 1.000000 0.000000 0.000000
  outer loop
   vertex 16.62644386 -0.242366001 -1.544841051 
   vertex 16.62644386 -2.312916994 -1.633190036 
   vertex 16.62644386 -1.854928017 -2.069972038 
  endloop
 endfacet
 facet normal 0.669178 0.743103 0.000000
  outer loop
   vertex 8.138238907 2.026956081 0 
   vertex 8.462802887 1.734680057 0 
   vertex 8.462802887 1.734680057 -1.621214032 
  endloop
 endfacet
 facet normal 0.669178 0.743102 0.000000
  outer loop
   vertex 8.462802887 1.734680057 -1.621214032 
   vertex 8.138238907 2.026956081 -1.881474972 
   vertex 8.138238907 2.026956081 0 
  endloop
 endfacet
endsolid
