solid
 facet normal 0.000000 0.000000 46.915588
  outer loop
   vertex -5.958959297 -6.091476834e-008 9.231566156 
   vertex -0.01764889151 -6.091476834e-008 9.231566156 
   vertex -5.958959297 7.896504818 9.231566156 
  endloop
 endfacet
 facet normal 0.000000 0.000000 46.915588
  outer loop
   vertex -5.958959297 7.896504818 9.231566156 
   vertex -0.01764889151 -6.091476834e-008 9.231566156 
   vertex -0.01764889151 7.896504818 9.231566156 
  endloop
 endfacet
 facet normal 0.000000 35.960739 -0.000004
  outer loop
   vertex -5.958959297 7.896504818 9.231566156 
   vertex -0.01764889151 7.896504818 9.231566156 
   vertex -5.958959297 7.89650458 3.178904737 
  endloop
 endfacet
 facet normal 0.000000 35.960747 0.000000
  outer loop
   vertex -5.958959297 7.89650458 3.178904737 
   vertex -0.01764889151 7.896504818 9.231566156 
   vertex -0.01764889151 7.89650458 3.178904737 
  endloop
 endfacet
 facet normal 0.000000 35.960739 0.000000
  outer loop
   vertex -5.958959297 7.89650458 3.178904737 
   vertex -0.01764889151 7.89650458 3.178904737 
   vertex -5.958959297 7.89650458 -2.873756682 
  endloop
 endfacet
 facet normal 0.000000 35.960747 0.000000
  outer loop
   vertex -5.958959297 7.89650458 -2.873756682 
   vertex -0.01764889151 7.89650458 3.178904737 
   vertex -0.01764889151 7.89650458 -2.873756682 
  endloop
 endfacet
 facet normal 0.000000 35.960739 0.000000
  outer loop
   vertex -5.958959297 7.89650458 -2.873756682 
   vertex -0.01764889151 7.89650458 -2.873756682 
   vertex -5.958959297 7.896504818 -8.926417624 
  endloop
 endfacet
 facet normal 0.000000 35.960739 0.000004
  outer loop
   vertex -5.958959297 7.896504818 -8.926417624 
   vertex -0.01764889151 7.89650458 -2.873756682 
   vertex -0.01764889151 7.896504818 -8.926417624 
  endloop
 endfacet
 facet normal 0.000000 0.000000 -46.915588
  outer loop
   vertex -5.958959297 7.896504818 -8.926417624 
   vertex -0.01764889151 7.896504818 -8.926417624 
   vertex -5.958959297 -6.091476834e-008 -8.926417624 
  endloop
 endfacet
 facet normal 0.000000 0.000000 -46.915588
  outer loop
   vertex -5.958959297 -6.091476834e-008 -8.926417624 
   vertex -0.01764889151 7.896504818 -8.926417624 
   vertex -0.01764889151 -6.091476834e-008 -8.926417624 
  endloop
 endfacet
 facet normal 0.000000 -35.960739 0.000000
  outer loop
   vertex -5.958959297 -6.091476834e-008 -8.926417624 
   vertex -0.01764889151 -6.091476834e-008 -8.926417624 
   vertex -5.958959297 -6.091476834e-008 -2.873756205 
  endloop
 endfacet
 facet normal 0.000000 -35.960747 0.000000
  outer loop
   vertex -5.958959297 -6.091476834e-008 -2.873756205 
   vertex -0.01764889151 -6.091476834e-008 -8.926417624 
   vertex -0.01764889151 -6.091476834e-008 -2.873756205 
  endloop
 endfacet
 facet normal 0.000000 -35.960739 0.000000
  outer loop
   vertex -5.958959297 -6.091476834e-008 -2.873756205 
   vertex -0.01764889151 -6.091476834e-008 -2.873756205 
   vertex -5.958959297 -6.091476834e-008 3.178905213 
  endloop
 endfacet
 facet normal 0.000000 -35.960747 0.000000
  outer loop
   vertex -5.958959297 -6.091476834e-008 3.178905213 
   vertex -0.01764889151 -6.091476834e-008 -2.873756205 
   vertex -0.01764889151 -6.091476834e-008 3.178905213 
  endloop
 endfacet
 facet normal 0.000000 -35.960739 0.000000
  outer loop
   vertex -5.958959297 -6.091476834e-008 3.178905213 
   vertex -0.01764889151 -6.091476834e-008 3.178905213 
   vertex -5.958959297 -6.091476834e-008 9.231566156 
  endloop
 endfacet
 facet normal 0.000000 -35.960739 0.000000
  outer loop
   vertex -5.958959297 -6.091476834e-008 9.231566156 
   vertex -0.01764889151 -6.091476834e-008 3.178905213 
   vertex -0.01764889151 -6.091476834e-008 9.231566156 
  endloop
 endfacet
 facet normal 47.794872 -0.000002 0.000000
  outer loop
   vertex 4.213635727 -2.993333474e-007 -2.873756205 
   vertex 4.213635727 -2.993333474e-007 -8.926417624 
   vertex 4.213635727 7.896504818 -2.873756682 
  endloop
 endfacet
 facet normal 47.794868 0.000000 0.000000
  outer loop
   vertex 4.213635727 7.896504818 -2.873756682 
   vertex 4.213635727 -2.993333474e-007 -8.926417624 
   vertex 4.213635727 7.896504818 -8.926417624 
  endloop
 endfacet
 facet normal 47.794868 0.000002 0.000000
  outer loop
   vertex -0.01764889151 -6.091476834e-008 3.178905213 
   vertex -0.01764889151 -6.091476834e-008 -2.873756205 
   vertex -0.01764889151 7.89650458 3.178904737 
  endloop
 endfacet
 facet normal 47.794868 0.000000 0.000000
  outer loop
   vertex -0.01764889151 7.89650458 3.178904737 
   vertex -0.01764889151 -6.091476834e-008 -2.873756205 
   vertex -0.01764889151 7.89650458 -2.873756682 
  endloop
 endfacet
 facet normal 47.794868 0.000000 0.000000
  outer loop
   vertex 7.970150276 -2.993333474e-007 9.231566156 
   vertex 7.970150276 -2.993333474e-007 3.178905213 
   vertex 7.970150276 7.896504818 9.231566156 
  endloop
 endfacet
 facet normal 47.794872 0.000000 0.000000
  outer loop
   vertex 7.970150276 7.896504818 9.231566156 
   vertex 7.970150276 -2.993333474e-007 3.178905213 
   vertex 7.970150276 7.896504818 3.178904737 
  endloop
 endfacet
 facet normal -47.794876 0.000000 0.000000
  outer loop
   vertex -5.958959297 -6.091476834e-008 -8.926417624 
   vertex -5.958959297 -6.091476834e-008 -2.873756205 
   vertex -5.958959297 7.896504818 -8.926417624 
  endloop
 endfacet
 facet normal -47.794865 -0.000000 0.000000
  outer loop
   vertex -5.958959297 7.896504818 -8.926417624 
   vertex -5.958959297 -6.091476834e-008 -2.873756205 
   vertex -5.958959297 7.89650458 -2.873756682 
  endloop
 endfacet
 facet normal -47.794868 -0.000000 0.000000
  outer loop
   vertex -5.958959297 -6.091476834e-008 -2.873756205 
   vertex -5.958959297 -6.091476834e-008 3.178905213 
   vertex -5.958959297 7.89650458 -2.873756682 
  endloop
 endfacet
 facet normal -47.794868 0.000000 0.000000
  outer loop
   vertex -5.958959297 7.89650458 -2.873756682 
   vertex -5.958959297 -6.091476834e-008 3.178905213 
   vertex -5.958959297 7.89650458 3.178904737 
  endloop
 endfacet
 facet normal -47.794861 0.000000 0.000000
  outer loop
   vertex -5.958959297 -6.091476834e-008 3.178905213 
   vertex -5.958959297 -6.091476834e-008 9.231566156 
   vertex -5.958959297 7.89650458 3.178904737 
  endloop
 endfacet
 facet normal -47.794880 0.000000 0.000000
  outer loop
   vertex -5.958959297 7.89650458 3.178904737 
   vertex -5.958959297 -6.091476834e-008 9.231566156 
   vertex -5.958959297 7.896504818 9.231566156 
  endloop
 endfacet
 facet normal -0.000001 -48.347443 0.000000
  outer loop
   vertex -0.01764889151 -6.091476834e-008 9.231566156 
   vertex -0.01764889151 -6.091476834e-008 3.178905213 
   vertex 7.970150276 -2.993333474e-007 9.231566156 
  endloop
 endfacet
 facet normal -0.000001 -48.347435 0.000000
  outer loop
   vertex 7.970150276 -2.993333474e-007 9.231566156 
   vertex -0.01764889151 -6.091476834e-008 3.178905213 
   vertex 7.970150276 -2.993333474e-007 3.178905213 
  endloop
 endfacet
 facet normal 0.000002 -0.000004 -63.075695
  outer loop
   vertex -0.01764889151 -6.091476834e-008 3.178905213 
   vertex -0.01764889151 7.89650458 3.178904737 
   vertex 7.970150276 -2.993333474e-007 3.178905213 
  endloop
 endfacet
 facet normal 0.000000 -0.000004 -63.075695
  outer loop
   vertex 7.970150276 -2.993333474e-007 3.178905213 
   vertex -0.01764889151 7.89650458 3.178904737 
   vertex 7.970150276 7.896504818 3.178904737 
  endloop
 endfacet
 facet normal -0.000001 48.347443 -0.000004
  outer loop
   vertex -0.01764889151 7.89650458 3.178904737 
   vertex -0.01764889151 7.896504818 9.231566156 
   vertex 7.970150276 7.896504818 3.178904737 
  endloop
 endfacet
 facet normal 0.000000 48.347443 0.000000
  outer loop
   vertex 7.970150276 7.896504818 3.178904737 
   vertex -0.01764889151 7.896504818 9.231566156 
   vertex 7.970150276 7.896504818 9.231566156 
  endloop
 endfacet
 facet normal 0.000000 0.000000 63.075695
  outer loop
   vertex -0.01764889151 7.896504818 9.231566156 
   vertex -0.01764889151 -6.091476834e-008 9.231566156 
   vertex 7.970150276 7.896504818 9.231566156 
  endloop
 endfacet
 facet normal 0.000000 0.000000 63.075699
  outer loop
   vertex 7.970150276 7.896504818 9.231566156 
   vertex -0.01764889151 -6.091476834e-008 9.231566156 
   vertex 7.970150276 -2.993333474e-007 9.231566156 
  endloop
 endfacet
 facet normal -0.000001 -25.610527 0.000000
  outer loop
   vertex -0.01764889151 -6.091476834e-008 -2.873756205 
   vertex -0.01764889151 -6.091476834e-008 -8.926417624 
   vertex 4.213635727 -2.993333474e-007 -2.873756205 
  endloop
 endfacet
 facet normal -0.000001 -25.610535 0.000000
  outer loop
   vertex 4.213635727 -2.993333474e-007 -2.873756205 
   vertex -0.01764889151 -6.091476834e-008 -8.926417624 
   vertex 4.213635727 -2.993333474e-007 -8.926417624 
  endloop
 endfacet
 facet normal 0.000004 0.000000 -33.412361
  outer loop
   vertex -0.01764889151 -6.091476834e-008 -8.926417624 
   vertex -0.01764889151 7.896504818 -8.926417624 
   vertex 4.213635727 -2.993333474e-007 -8.926417624 
  endloop
 endfacet
 facet normal 0.000000 0.000000 -33.412361
  outer loop
   vertex 4.213635727 -2.993333474e-007 -8.926417624 
   vertex -0.01764889151 7.896504818 -8.926417624 
   vertex 4.213635727 7.896504818 -8.926417624 
  endloop
 endfacet
 facet normal 0.000000 25.610527 0.000004
  outer loop
   vertex -0.01764889151 7.896504818 -8.926417624 
   vertex -0.01764889151 7.89650458 -2.873756682 
   vertex 4.213635727 7.896504818 -8.926417624 
  endloop
 endfacet
 facet normal -0.000001 25.610535 0.000000
  outer loop
   vertex 4.213635727 7.896504818 -8.926417624 
   vertex -0.01764889151 7.89650458 -2.873756682 
   vertex 4.213635727 7.896504818 -2.873756682 
  endloop
 endfacet
 facet normal 0.000002 0.000002 33.412357
  outer loop
   vertex -0.01764889151 7.89650458 -2.873756682 
   vertex -0.01764889151 -6.091476834e-008 -2.873756205 
   vertex 4.213635727 7.896504818 -2.873756682 
  endloop
 endfacet
 facet normal 0.000000 0.000002 33.412361
  outer loop
   vertex 4.213635727 7.896504818 -2.873756682 
   vertex -0.01764889151 -6.091476834e-008 -2.873756205 
   vertex 4.213635727 -2.993333474e-007 -2.873756205 
  endloop
 endfacet
endsolid
